<?xml version="1.0" encoding="UTF-8"?>
<svg version="1.1" xmlns="http://www.w3.org/2000/svg" xmlns:xlink="http://www.w3.org/1999/xlink">
    <!-- Generator: Sketch 48.2 (47327) - http://www.bohemiancoding.com/sketch -->
    <title>blackrock_logo</title>
    <desc>Created with Sketch.</desc>
    <defs></defs>
    <g id="Page-1" stroke="none" stroke-width="1" fill="none" fill-rule="evenodd">
        <g id="blackrock_logo" fill="#FFFFFF">
            <path d="M69.694,3.712 C69.694,3.058 70.225,2.577 70.85,2.577 C71.47,2.577 72,3.058 72,3.712 C72,4.37 71.47,4.853 70.85,4.853 C70.225,4.853 69.694,4.37 69.694,3.712 Z M70.85,4.663 C71.365,4.663 71.771,4.259 71.771,3.712 C71.771,3.173 71.365,2.768 70.85,2.768 C70.33,2.768 69.923,3.173 69.923,3.712 C69.923,4.259 70.33,4.663 70.85,4.663 Z M70.609,4.37 L70.411,4.37 L70.411,3.058 L70.911,3.058 C71.22,3.058 71.373,3.173 71.373,3.431 C71.373,3.667 71.225,3.769 71.033,3.793 L71.406,4.37 L71.185,4.37 L70.838,3.802 L70.609,3.802 L70.609,4.37 Z M70.846,3.634 C71.014,3.634 71.165,3.62 71.165,3.419 C71.165,3.257 71.017,3.228 70.88,3.228 L70.609,3.228 L70.609,3.634 L70.846,3.634 Z M35.665,2.573 L32.172,6.552 L35.673,10.866 L37.668,10.866 L34.098,6.435 L37.387,2.573 L35.665,2.573 Z M30.375,10.87 L30.375,2.569 L32.074,2.569 L32.074,10.87 L30.375,10.87 Z M22.654,6.454 C22.654,3.798 24.374,2.451 26.363,2.451 C28.531,2.451 29.283,3.595 29.437,4.157 L27.958,4.571 C27.714,3.868 27.14,3.599 26.464,3.599 C25.157,3.599 24.491,4.688 24.491,6.494 C24.491,8.743 25.551,9.835 27.025,9.835 C27.726,9.835 28.307,9.688 28.985,9.341 L29.384,10.175 C28.607,10.722 27.809,11 26.597,11 C24.305,11 22.654,9.175 22.654,6.454 Z M67.191,2.573 L63.698,6.552 L67.199,10.866 L69.194,10.866 L65.623,6.435 L68.913,2.573 L67.191,2.573 Z M61.901,10.87 L61.901,2.569 L63.599,2.569 L63.599,10.87 L61.901,10.87 Z M54.125,6.454 C54.125,3.798 55.846,2.451 57.834,2.451 C60.002,2.451 60.754,3.595 60.908,4.157 L59.43,4.571 C59.185,3.868 58.611,3.599 57.936,3.599 C56.629,3.599 55.962,4.688 55.962,6.494 C55.962,8.743 57.023,9.835 58.497,9.835 C59.197,9.835 59.778,9.688 60.456,9.341 L60.855,10.175 C60.079,10.722 59.28,11 58.068,11 C55.776,11 54.125,9.175 54.125,6.454 Z M49.564,9.839 C47.83,9.839 47.446,8.433 47.446,6.733 C47.446,5.032 47.839,3.554 49.564,3.554 C51.29,3.554 51.682,5.032 51.682,6.733 C51.682,8.433 51.298,9.839 49.564,9.839 Z M49.564,2.45 C51.819,2.45 53.448,3.81 53.448,6.733 C53.448,9.645 51.887,11 49.564,11 C47.242,11 45.681,9.645 45.681,6.733 C45.681,3.81 47.31,2.45 49.564,2.45 Z M10.324,2.581 L10.324,9.508 L14.223,9.508 L13.695,10.87 L8.625,10.87 L8.625,2.581 L10.324,2.581 Z M40.922,5.308 L39.996,5.308 L39.996,1.776 L41.119,1.78 C42.64,1.78 43.428,2.258 43.428,3.515 C43.428,4.892 42.447,5.308 40.922,5.308 Z M42.947,6.337 C44.037,5.913 45.298,5.011 45.298,3.432 C45.298,1.525 43.637,0.545 41.264,0.545 L38.184,0.545 L38.184,10.868 L39.996,10.868 L39.996,6.614 L41.074,6.614 L43.924,10.868 L46.005,10.868 L42.947,6.337 Z M17.3,7.914 L18.549,4.854 L19.842,7.915 L17.3,7.914 Z M17.427,2.581 L17.726,3.226 L14.51,10.868 L16.09,10.868 L16.767,9.186 L20.411,9.186 L21.143,10.868 L23.003,10.868 L19.356,2.581 L17.427,2.581 Z M3.041,9.508 L1.863,9.505 L1.863,6.093 L2.934,6.093 C4.563,6.093 5.899,6.331 5.899,7.808 C5.899,9.228 4.819,9.508 3.041,9.508 Z M2.998,1.784 C4.354,1.784 5.31,1.942 5.31,3.188 C5.31,4.835 3.625,4.745 2.783,4.745 L1.863,4.745 L1.863,1.78 L2.998,1.784 Z M5.451,5.333 C6.364,5.046 7.226,4.358 7.226,3.067 C7.226,0.545 4.218,0.545 3.232,0.545 L3.55271368e-15,0.545 L3.55271368e-15,10.87 L3.109,10.87 C4.878,10.87 7.812,10.409 7.812,7.889 C7.812,6.481 6.992,5.591 5.451,5.333 Z" id="Fill-1"></path>
        </g>
    </g>
</svg>