<?xml version="1.0" encoding="UTF-8"?>
<svg version="1.1" xmlns="http://www.w3.org/2000/svg" xmlns:xlink="http://www.w3.org/1999/xlink">
    <!-- Generator: Sketch 48.2 (47327) - http://www.bohemiancoding.com/sketch -->
    <title>lifepath_desc</title>
    <desc>Created with Sketch.</desc>
    <defs></defs>
    <g id="Page-1" stroke="none" stroke-width="1" fill="none" fill-rule="evenodd">
        <g id="lifepath_desc" fill="#FFFFFF">
            <g id="Group">
                <path d="M0.828801508,12 L0.828801508,1.23840014 L4.40080146,1.23840014 C7.09120143,1.23840014 10.0552014,3.03200011 10.0552014,6.61920007 C10.0552014,10.2064 7.09120143,12 4.40080146,12 L0.828801508,12 Z M1.92320149,2.21120012 L1.92320149,11.0272 L4.09680147,11.0272 C7.33440143,11.0272 8.90000141,8.83840004 8.90000141,6.61920007 C8.90000141,4.4000001 7.33440143,2.21120012 4.09680147,2.21120012 L1.92320149,2.21120012 Z M13.3232014,4.88640009 L13.3232014,12 L12.2896014,12 L12.2896014,4.88640009 L13.3232014,4.88640009 Z M13.5360013,2.15040012 C13.5360013,2.57600012 13.1712014,2.88000011 12.8064014,2.88000011 C12.4416014,2.88000011 12.0768014,2.57600012 12.0768014,2.15040012 C12.0768014,1.72480013 12.4416014,1.42080013 12.8064014,1.42080013 C13.1712014,1.42080013 13.5360013,1.72480013 13.5360013,2.15040012 Z M21.8808012,4.88640009 L18.9928013,12 L17.8528013,12 L14.9496013,4.88640009 L16.1048013,4.88640009 L18.4152013,10.9056 L18.4456013,10.9056 L20.7712013,4.88640009 L21.8808012,4.88640009 Z M24.0696012,7.89600005 L28.9184012,7.89600005 C28.8576012,6.55840007 28.0368012,5.57040008 26.5624012,5.57040008 C25.1792012,5.57040008 24.1608012,6.68000007 24.0696012,7.89600005 Z M29.9672011,8.23040005 C29.9672011,8.36720005 29.9672011,8.53440004 29.9520011,8.71680004 L24.0544012,8.71680004 C24.0848012,10.1456 25.1944012,11.3008 26.6536012,11.3008 C27.7176012,11.3008 28.5384012,10.708 28.9336012,10.0696 L29.7088011,10.6776 C28.8728012,11.7416 27.8240012,12.1824 26.6536012,12.1824 C24.5408012,12.1824 22.9752012,10.5864 22.9752012,8.44320004 C22.9752012,6.30000007 24.5408012,4.70400009 26.5624012,4.70400009 C28.7968012,4.70400009 29.9672011,6.28480007 29.9672011,8.23040005 Z M32.1864011,6.45200007 C32.1864011,6.07200007 32.1712011,5.37280008 32.1256011,4.88640009 L33.1136011,4.88640009 C33.1440011,5.26640008 33.1744011,5.79840008 33.1744011,6.10240007 L33.2048011,6.10240007 C33.6000011,5.28160008 34.4816011,4.70400009 35.4848011,4.70400009 C35.7432011,4.70400009 35.9560011,4.71920009 36.1688011,4.78000009 L36.0320011,5.75280008 C35.9104011,5.70720008 35.5760011,5.66160008 35.3024011,5.66160008 C34.2080011,5.66160008 33.2200011,6.45200007 33.2200011,8.35200005 L33.2200011,12 L32.1864011,12 L32.1864011,6.45200007 Z M42.233601,5.98080008 L41.443201,6.57360007 C41.139201,5.98080008 40.485601,5.57040008 39.695201,5.57040008 C38.950401,5.57040008 38.190401,5.88960008 38.190401,6.68000007 C38.190401,7.34880006 38.722401,7.65280005 39.892801,7.89600005 C41.564801,8.24560005 42.355201,8.86880004 42.355201,9.97840003 C42.355201,11.6048 40.987201,12.1824 39.680001,12.1824 C38.600801,12.1824 37.521601,11.7568 36.8680011,10.7992 L37.688801,10.1912 C38.053601,10.8144 38.828801,11.3008 39.664801,11.3008 C40.546401,11.3008 41.336801,10.9816 41.336801,10.0544 C41.336801,9.30960003 40.592001,9.00560004 39.239201,8.68640004 C38.403201,8.48880004 37.2024011,8.12400005 37.2024011,6.77120007 C37.2024011,5.32720008 38.448801,4.70400009 39.740801,4.70400009 C40.728801,4.70400009 41.777601,5.17520009 42.233601,5.98080008 Z M45.4560009,4.88640009 L45.4560009,12 L44.422401,12 L44.422401,4.88640009 L45.4560009,4.88640009 Z M45.6688009,2.15040012 C45.6688009,2.57600012 45.3040009,2.88000011 44.939201,2.88000011 C44.574401,2.88000011 44.209601,2.57600012 44.209601,2.15040012 C44.209601,1.72480013 44.574401,1.42080013 44.939201,1.42080013 C45.3040009,1.42080013 45.6688009,1.72480013 45.6688009,2.15040012 Z M53.7096008,4.88640009 L53.7096008,12 L52.6760009,12 L52.6760009,4.88640009 L53.7096008,4.88640009 Z M53.9376008,2.15040012 C53.9376008,2.57600012 53.5728008,2.88000011 53.2080009,2.88000011 C52.8432009,2.88000011 52.4784009,2.57600012 52.4784009,2.15040012 C52.4784009,1.72480013 52.8432009,1.42080013 53.2080009,1.42080013 C53.5728008,1.42080013 53.9376008,1.72480013 53.9376008,2.15040012 Z M51.2168009,4.88640009 L51.2168009,5.75280008 L49.5448009,5.75280008 L49.5448009,12 L48.5112009,12 L48.5112009,5.75280008 L47.0216009,5.75280008 L47.0216009,4.88640009 L48.5112009,4.88640009 L48.5112009,2.94080011 C48.5112009,1.32960013 49.3016009,0.326400146 50.9280009,0.326400146 C51.1864009,0.326400146 51.5208009,0.356800146 51.7792009,0.432800145 L51.5968009,1.34480013 C51.3840009,1.28400013 51.1560009,1.23840014 50.8824009,1.23840014 C49.7728009,1.23840014 49.5448009,2.02880013 49.5448009,3.06240011 L49.5448009,4.88640009 L51.2168009,4.88640009 Z M57.0536008,7.89600005 L61.9024007,7.89600005 C61.8416007,6.55840007 61.0208008,5.57040008 59.5464008,5.57040008 C58.1632008,5.57040008 57.1448008,6.68000007 57.0536008,7.89600005 Z M62.9512007,8.23040005 C62.9512007,8.36720005 62.9512007,8.53440004 62.9360007,8.71680004 L57.0384008,8.71680004 C57.0688008,10.1456 58.1784008,11.3008 59.6376008,11.3008 C60.7016008,11.3008 61.5224007,10.708 61.9176007,10.0696 L62.6928007,10.6776 C61.8568007,11.7416 60.8080008,12.1824 59.6376008,12.1824 C57.5248008,12.1824 55.9592008,10.5864 55.9592008,8.44320004 C55.9592008,6.30000007 57.5248008,4.70400009 59.5464008,4.70400009 C61.7808007,4.70400009 62.9512007,6.28480007 62.9512007,8.23040005 Z M71.0224006,10.7992 C70.4144006,11.696 69.3504006,12.1824 68.3320007,12.1824 C66.1128007,12.1824 64.6536007,10.5408 64.6536007,8.44320004 C64.6536007,6.34560007 66.1128007,4.70400009 68.3320007,4.70400009 C69.3504006,4.70400009 70.4144006,5.19040009 71.0224006,6.11760007 L71.0528006,6.11760007 L71.0528006,0.508800144 L72.0864006,0.508800144 L72.0864006,12 L71.0528006,12 L71.0528006,10.7992 L71.0224006,10.7992 Z M65.7480007,8.44320004 C65.7480007,10.024 66.7208007,11.3008 68.4384007,11.3008 C70.0344006,11.3008 71.1744006,10.0696 71.1744006,8.44320004 C71.1744006,6.81680007 70.0344006,5.57040008 68.4384007,5.57040008 C66.7208007,5.57040008 65.7480007,6.86240006 65.7480007,8.44320004 Z M76.2816006,11.2704 C76.2816006,11.696 75.9472006,12.0912 75.4608006,12.0912 C74.9744006,12.0912 74.6400006,11.696 74.6400006,11.2704 C74.6400006,10.8448 74.9744006,10.4496 75.4608006,10.4496 C75.9472006,10.4496 76.2816006,10.8448 76.2816006,11.2704 Z M83.7600005,1.23840014 L83.7600005,11.0272 L88.7760004,11.0272 L88.7760004,12 L82.6656005,12 L82.6656005,1.23840014 L83.7600005,1.23840014 Z M97.4248003,8.44320004 C97.4248003,10.5864 95.8440003,12.1824 93.6248003,12.1824 C91.4208004,12.1824 89.8400004,10.5864 89.8400004,8.44320004 C89.8400004,6.30000007 91.4208004,4.70400009 93.6248003,4.70400009 C95.8440003,4.70400009 97.4248003,6.30000007 97.4248003,8.44320004 Z M96.3304003,8.44320004 C96.3304003,6.84720006 95.2816003,5.57040008 93.6248003,5.57040008 C91.9832004,5.57040008 90.9344004,6.84720006 90.9344004,8.44320004 C90.9344004,10.0392 91.9832004,11.3008 93.6248003,11.3008 C95.2816003,11.3008 96.3304003,10.0392 96.3304003,8.44320004 Z M98.6712003,4.88640009 L99.7808003,4.88640009 L101.4984,10.6624 L101.5288,10.6624 L103.444,4.88640009 L104.4472,4.88640009 L106.3928,10.6624 L106.4232,10.6624 L108.1256,4.88640009 L109.22,4.88640009 L106.9704,12 L105.8456,12 L103.9456,6.23920007 L103.9152,6.23920007 L102.0456,12 L100.9208,12 L98.6712003,4.88640009 Z M123.052,9.72000003 L123.9032,10.2672 C123.1888,11.3464 121.8056,12.2736 119.8752,12.2736 C116.6224,12.2736 114.2664,9.88720003 114.2664,6.61920007 C114.2664,3.35120011 116.668,0.964800138 119.8752,0.964800138 C121.456,0.964800138 122.9608,1.61840013 123.7056,2.66720012 L122.7936,3.33600011 C122.3376,2.63680012 121.2584,1.92240013 119.8904,1.92240013 C117.1088,1.92240013 115.4216,4.1112001 115.4216,6.61920007 C115.4216,9.12720004 117.124,11.316 119.8904,11.316 C121.1216,11.316 122.3072,10.8296 123.052,9.72000003 Z M132.7952,8.44320004 C132.7952,10.5864 131.2144,12.1824 128.9952,12.1824 C126.7912,12.1824 125.2104,10.5864 125.2104,8.44320004 C125.2104,6.30000007 126.7912,4.70400009 128.9952,4.70400009 C131.2144,4.70400009 132.7952,6.30000007 132.7952,8.44320004 Z M131.7008,8.44320004 C131.7008,6.84720006 130.652,5.57040008 128.9952,5.57040008 C127.3536,5.57040008 126.3048,6.84720006 126.3048,8.44320004 C126.3048,10.0392 127.3536,11.3008 128.9952,11.3008 C130.652,11.3008 131.7008,10.0392 131.7008,8.44320004 Z M139.5896,5.98080008 L138.7992,6.57360007 C138.4952,5.98080008 137.8416,5.57040008 137.0512,5.57040008 C136.3064,5.57040008 135.5464,5.88960008 135.5464,6.68000007 C135.5464,7.34880006 136.0784,7.65280005 137.2488,7.89600005 C138.9208,8.24560005 139.7112,8.86880004 139.7112,9.97840003 C139.7112,11.6048 138.3432,12.1824 137.036,12.1824 C135.9568,12.1824 134.8776,11.7568 134.224,10.7992 L135.0448,10.1912 C135.4096,10.8144 136.1848,11.3008 137.0208,11.3008 C137.9024,11.3008 138.6928,10.9816 138.6928,10.0544 C138.6928,9.30960003 137.948,9.00560004 136.5952,8.68640004 C135.7592,8.48880004 134.5584,8.12400005 134.5584,6.77120007 C134.5584,5.32720008 135.8048,4.70400009 137.0968,4.70400009 C138.0848,4.70400009 139.1336,5.17520009 139.5896,5.98080008 Z M144.9704,4.88640009 L144.9704,5.75280008 L142.964,5.75280008 L142.964,9.90240003 C142.964,10.9664 143.4048,11.2096 144.028,11.2096 C144.3168,11.2096 144.6512,11.1184 144.9248,10.9816 L144.9704,11.8784 C144.6056,12.0152 144.2256,12.0912 143.7544,12.0912 C142.9944,12.0912 141.9304,11.7568 141.9304,10.1912 L141.9304,5.75280008 L140.456,5.75280008 L140.456,4.88640009 L141.9304,4.88640009 L141.9304,2.88000011 L142.964,2.88000011 L142.964,4.88640009 L144.9704,4.88640009 Z M148.0104,11.2704 C148.0104,11.696 147.676,12.0912 147.1896,12.0912 C146.7032,12.0912 146.3688,11.696 146.3688,11.2704 C146.3688,10.8448 146.7032,10.4496 147.1896,10.4496 C147.676,10.4496 148.0104,10.8448 148.0104,11.2704 Z M157.8448,2.21120012 L157.8448,12 L156.7504,12 L156.7504,2.21120012 L153.148,2.21120012 L153.148,1.23840014 L161.447199,1.23840014 L161.447199,2.21120012 L157.8448,2.21120012 Z M164.046399,4.88640009 L164.046399,12 L163.012799,12 L163.012799,4.88640009 L164.046399,4.88640009 Z M164.259199,2.15040012 C164.259199,2.57600012 163.894399,2.88000011 163.529599,2.88000011 C163.164799,2.88000011 162.799999,2.57600012 162.799999,2.15040012 C162.799999,1.72480013 163.164799,1.42080013 163.529599,1.42080013 C163.894399,1.42080013 164.259199,1.72480013 164.259199,2.15040012 Z M167.815999,6.10240007 C168.226399,5.28160008 169.138399,4.70400009 170.156799,4.70400009 C170.931999,4.70400009 171.874399,4.99280009 172.345599,6.20880007 C172.831999,5.23600008 173.698399,4.70400009 174.838399,4.70400009 C176.647199,4.70400009 177.543999,5.87440008 177.543999,7.63760005 L177.543999,12 L176.510399,12 L176.510399,8.06320005 C176.510399,6.57360007 176.008799,5.57040008 174.671199,5.57040008 C173.181599,5.57040008 172.649599,6.89280006 172.649599,8.21520005 L172.649599,12 L171.615999,12 L171.615999,7.85040005 C171.615999,6.46720007 171.281599,5.57040008 169.898399,5.57040008 C168.910399,5.57040008 167.831199,6.45200007 167.831199,8.35200005 L167.831199,12 L166.797599,12 L166.797599,6.45200007 C166.797599,6.07200007 166.782399,5.37280008 166.736799,4.88640009 L167.724799,4.88640009 C167.755199,5.26640008 167.785599,5.79840008 167.785599,6.10240007 L167.815999,6.10240007 Z M180.796799,7.89600005 L185.645599,7.89600005 C185.584799,6.55840007 184.763999,5.57040008 183.289599,5.57040008 C181.906399,5.57040008 180.887999,6.68000007 180.796799,7.89600005 Z M186.694399,8.23040005 C186.694399,8.36720005 186.694399,8.53440004 186.679199,8.71680004 L180.781599,8.71680004 C180.811999,10.1456 181.921599,11.3008 183.380799,11.3008 C184.444799,11.3008 185.265599,10.708 185.660799,10.0696 L186.435999,10.6776 C185.599999,11.7416 184.551199,12.1824 183.380799,12.1824 C181.267999,12.1824 179.702399,10.5864 179.702399,8.44320004 C179.702399,6.30000007 181.267999,4.70400009 183.289599,4.70400009 C185.523999,4.70400009 186.694399,6.28480007 186.694399,8.23040005 Z M196.224799,2.21120012 L196.224799,12 L195.130399,12 L195.130399,2.21120012 L191.527999,2.21120012 L191.527999,1.23840014 L199.827199,1.23840014 L199.827199,2.21120012 L196.224799,2.21120012 Z M201.955199,7.89600005 L206.803999,7.89600005 C206.743199,6.55840007 205.922399,5.57040008 204.447999,5.57040008 C203.064799,5.57040008 202.046399,6.68000007 201.955199,7.89600005 Z M207.852799,8.23040005 C207.852799,8.36720005 207.852799,8.53440004 207.837599,8.71680004 L201.939999,8.71680004 C201.970399,10.1456 203.079999,11.3008 204.539199,11.3008 C205.603199,11.3008 206.423999,10.708 206.819199,10.0696 L207.594399,10.6776 C206.758399,11.7416 205.709599,12.1824 204.539199,12.1824 C202.426399,12.1824 200.860799,10.5864 200.860799,8.44320004 C200.860799,6.30000007 202.426399,4.70400009 204.447999,4.70400009 C206.682399,4.70400009 207.852799,6.28480007 207.852799,8.23040005 Z M214.647199,5.98080008 L213.856799,6.57360007 C213.552799,5.98080008 212.899199,5.57040008 212.108799,5.57040008 C211.363999,5.57040008 210.603999,5.88960008 210.603999,6.68000007 C210.603999,7.34880006 211.135999,7.65280005 212.306399,7.89600005 C213.978399,8.24560005 214.768799,8.86880004 214.768799,9.97840003 C214.768799,11.6048 213.400799,12.1824 212.093599,12.1824 C211.014399,12.1824 209.935199,11.7568 209.281599,10.7992 L210.102399,10.1912 C210.467199,10.8144 211.242399,11.3008 212.078399,11.3008 C212.959999,11.3008 213.750399,10.9816 213.750399,10.0544 C213.750399,9.30960003 213.005599,9.00560004 211.652799,8.68640004 C210.816799,8.48880004 209.615999,8.12400005 209.615999,6.77120007 C209.615999,5.32720008 210.862399,4.70400009 212.154399,4.70400009 C213.142399,4.70400009 214.191199,5.17520009 214.647199,5.98080008 Z M220.027999,4.88640009 L220.027999,5.75280008 L218.021599,5.75280008 L218.021599,9.90240003 C218.021599,10.9664 218.462399,11.2096 219.085599,11.2096 C219.374399,11.2096 219.708799,11.1184 219.982399,10.9816 L220.027999,11.8784 C219.663199,12.0152 219.283199,12.0912 218.811999,12.0912 C218.051999,12.0912 216.987999,11.7568 216.987999,10.1912 L216.987999,5.75280008 L215.513599,5.75280008 L215.513599,4.88640009 L216.987999,4.88640009 L216.987999,2.88000011 L218.021599,2.88000011 L218.021599,4.88640009 L220.027999,4.88640009 Z M222.216799,7.89600005 L227.065599,7.89600005 C227.004799,6.55840007 226.183999,5.57040008 224.709599,5.57040008 C223.326399,5.57040008 222.307999,6.68000007 222.216799,7.89600005 Z M228.114399,8.23040005 C228.114399,8.36720005 228.114399,8.53440004 228.099199,8.71680004 L222.201599,8.71680004 C222.231999,10.1456 223.341599,11.3008 224.800799,11.3008 C225.864799,11.3008 226.685599,10.708 227.080799,10.0696 L227.855999,10.6776 C227.019999,11.7416 225.971199,12.1824 224.800799,12.1824 C222.687999,12.1824 221.122399,10.5864 221.122399,8.44320004 C221.122399,6.30000007 222.687999,4.70400009 224.709599,4.70400009 C226.943999,4.70400009 228.114399,6.28480007 228.114399,8.23040005 Z M236.185599,10.7992 C235.577599,11.696 234.513599,12.1824 233.495199,12.1824 C231.275999,12.1824 229.816799,10.5408 229.816799,8.44320004 C229.816799,6.34560007 231.275999,4.70400009 233.495199,4.70400009 C234.513599,4.70400009 235.577599,5.19040009 236.185599,6.11760007 L236.215999,6.11760007 L236.215999,0.508800144 L237.249599,0.508800144 L237.249599,12 L236.215999,12 L236.215999,10.7992 L236.185599,10.7992 Z M230.911199,8.44320004 C230.911199,10.024 231.883999,11.3008 233.601599,11.3008 C235.197599,11.3008 236.337599,10.0696 236.337599,8.44320004 C236.337599,6.81680007 235.197599,5.57040008 233.601599,5.57040008 C231.883999,5.57040008 230.911199,6.86240006 230.911199,8.44320004 Z M241.444798,11.2704 C241.444798,11.696 241.110398,12.0912 240.623998,12.0912 C240.137599,12.0912 239.803199,11.696 239.803199,11.2704 C239.803199,10.8448 240.137599,10.4496 240.623998,10.4496 C241.110398,10.4496 241.444798,10.8448 241.444798,11.2704 Z" id="Diversified.-Low-Cos"></path>
            </g>
        </g>
    </g>
</svg>