<?xml version="1.0" encoding="UTF-8"?>
<svg version="1.1" xmlns="http://www.w3.org/2000/svg" xmlns:xlink="http://www.w3.org/1999/xlink">
    <!-- Generator: Sketch 48.2 (47327) - http://www.bohemiancoding.com/sketch -->
    <title>lifepath_title_v2</title>
    <desc>Created with Sketch.</desc>
    <defs></defs>
    <g id="Page-1" stroke="none" stroke-width="1" fill="none" fill-rule="evenodd">
        <g id="lifepath_title_v2" fill="#FFFFFF">
            <path d="M10.218151,14.661745 L2,14.661745 L2,1.35704698 L5.16933178,1.35704698 L5.16933178,11.861745 L10.218151,11.861745 L10.218151,14.661745 Z M14.8615906,14.661745 L11.6922588,14.661745 L11.6922588,1.35704698 L14.8615906,1.35704698 L14.8615906,14.661745 Z M26.1385153,4.10067114 L20.6658901,4.10067114 L20.6658901,6.8442953 L25.7147093,6.8442953 L25.7147093,9.49395973 L20.6658901,9.49395973 L20.6658901,14.661745 L17.5518373,14.661745 L17.5518373,1.35704698 L26.1385153,1.35704698 L26.1385153,4.10067114 Z M37.2680292,14.661745 L28.1654135,14.661745 L28.1654135,1.35704698 L36.936355,1.35704698 L36.936355,4.08187919 L31.2057609,4.08187919 L31.2057609,6.58120805 L36.6231071,6.58120805 L36.6231071,9.1557047 L31.2057609,9.1557047 L31.2057609,11.9181208 L37.2680292,11.9181208 L37.2680292,14.661745 Z M49.2451551,5.45369128 C49.2451551,8.53557047 46.7944509,9.6442953 44.0673515,9.6442953 L42.5011119,9.6442953 L42.5011119,14.661745 L39.3502065,14.661745 L39.3502065,1.35704698 L44.1410569,1.35704698 C46.9971407,1.35704698 49.2451551,2.40939597 49.2451551,5.45369128 Z M46.0942497,5.47248322 C46.0942497,4.19463087 45.0070952,3.95033557 43.883088,3.95033557 L42.5011119,3.95033557 L42.5011119,7.0885906 L43.827809,7.0885906 C45.0070952,7.0885906 46.0942497,6.73154362 46.0942497,5.47248322 Z M63.4887218,14.661745 L59.9877158,14.661745 L58.9742667,12.0496644 L53.9254474,12.0496644 L52.9672773,14.661745 L49.5399767,14.661745 L55.0126019,1.35704698 L58.0713756,1.35704698 L63.4887218,14.661745 Z M58.1082283,9.47516779 L56.4867097,4.90872483 L54.8283385,9.47516779 L58.1082283,9.47516779 Z M73.8443291,4.10067114 L70.1590596,4.10067114 L70.1590596,14.661745 L67.0081542,14.661745 L67.0081542,4.10067114 L63.3228847,4.10067114 L63.3228847,1.35704698 L73.8443291,1.35704698 L73.8443291,4.10067114 Z M86.669067,14.661745 L83.5181616,14.661745 L83.5181616,9.09932886 L78.4324897,9.09932886 L78.4324897,14.661745 L75.2815842,14.661745 L75.2815842,1.35704698 L78.4324897,1.35704698 L78.4324897,6.39328859 L83.5181616,6.39328859 L83.5181616,1.35704698 L86.669067,1.35704698 L86.669067,14.661745 Z M93.1551414,4.87114094 L93.6342264,4.87114094 C93.929048,4.87114094 94.1501641,4.68322148 94.1501641,4.43892617 C94.1501641,4.23221477 93.8921953,4.10067114 93.6342264,4.10067114 L93.1551414,4.10067114 L93.1551414,4.87114094 Z M96.103357,7.80268456 L94.2607222,7.80268456 L93.4499629,6.03624161 L93.1551414,6.03624161 L93.1551414,7.80268456 L91.5336228,7.80268456 L91.5336228,2.80402685 L93.6342264,2.80402685 C94.6845282,2.80402685 95.8638145,3.16107383 95.8638145,4.42013423 C95.8638145,5.07785235 95.5505666,5.5852349 94.9793498,5.81073826 L96.103357,7.80268456 Z M89.3408874,5.41610738 C89.3408874,3.04832215 91.2388012,1.15033557 93.560521,1.15033557 C95.8638145,1.15033557 97.7433019,3.04832215 97.7433019,5.41610738 C97.7433019,7.78389262 95.8638145,9.6442953 93.560521,9.6442953 C91.2388012,9.6442953 89.3408874,7.78389262 89.3408874,5.41610738 Z M90.0042359,5.41610738 C90.0042359,7.38926174 91.5889018,9.02416107 93.560521,9.02416107 C95.5137139,9.02416107 97.0799534,7.38926174 97.0799534,5.41610738 C97.0799534,3.42416107 95.5137139,1.80805369 93.560521,1.80805369 C91.5889018,1.80805369 90.0042359,3.42416107 90.0042359,5.41610738 Z M114.290162,4.10067114 L110.604893,4.10067114 L110.604893,14.661745 L107.453987,14.661745 L107.453987,4.10067114 L103.768718,4.10067114 L103.768718,1.35704698 L114.290162,1.35704698 L114.290162,4.10067114 Z M128.07307,14.661745 L124.572064,14.661745 L123.558615,12.0496644 L118.509796,12.0496644 L117.551626,14.661745 L114.124325,14.661745 L119.59695,1.35704698 L122.655724,1.35704698 L128.07307,14.661745 Z M122.692577,9.47516779 L121.071058,4.90872483 L119.412687,9.47516779 L122.692577,9.47516779 Z M139.82908,14.661745 L136.14381,14.661745 L133.324579,9.38120805 L132.255851,9.38120805 L132.255851,14.661745 L129.160225,14.661745 L129.160225,1.35704698 L134.135338,1.35704698 C136.641322,1.35704698 139.128879,2.33422819 139.128879,5.37852349 C139.128879,7.16375839 138.097003,8.44161074 136.420205,8.96778523 L139.82908,14.661745 Z M136.014826,5.43489933 C136.014826,4.19463087 134.853966,3.95033557 133.914222,3.95033557 L132.237425,3.95033557 L132.237425,7.05100671 L133.729959,7.05100671 C134.743408,7.05100671 136.014826,6.78791946 136.014826,5.43489933 Z M152.967066,13.8536913 C151.695648,14.5302013 149.945145,15 147.936673,15 C143.772318,15 140.768823,12.1812081 140.768823,7.99060403 C140.768823,3.72483221 143.86445,1 147.844541,1 C149.889866,1 151.787779,1.69530201 152.874934,2.76644295 L150.884888,5.07785235 C150.276819,4.36375839 149.226517,3.83758389 147.955099,3.83758389 C145.743937,3.83758389 144.122419,5.60402685 144.122419,7.99060403 C144.122419,10.433557 145.541247,12.1812081 148.10251,12.1812081 C148.839564,12.1812081 149.521339,12.0684564 150.074129,11.8241611 L150.074129,9.4 L147.586572,9.4 L147.586572,6.80671141 L152.967066,6.80671141 L152.967066,13.8536913 Z M164.64937,14.661745 L155.546754,14.661745 L155.546754,1.35704698 L164.317696,1.35704698 L164.317696,4.08187919 L158.587102,4.08187919 L158.587102,6.58120805 L164.004448,6.58120805 L164.004448,9.1557047 L158.587102,9.1557047 L158.587102,11.9181208 L164.64937,11.9181208 L164.64937,14.661745 Z M176,4.10067114 L172.31473,4.10067114 L172.31473,14.661745 L169.163825,14.661745 L169.163825,4.10067114 L165.478556,4.10067114 L165.478556,1.35704698 L176,1.35704698 L176,4.10067114 Z" id="LIFEPATH®-TARGET-DAT"></path>
            <g id="Group" transform="translate(30.000000, 20.000000)">
                <path d="M64.5028005,3.65920021 L59.0380006,3.65920021 L59.0380006,6.34560016 L64.0796005,6.34560016 L64.0796005,8.9400001 L59.0380006,8.9400001 L59.0380006,14 L55.9284006,14 L55.9284006,0.97280027 L64.5028005,0.97280027 L64.5028005,3.65920021 Z M77.5668002,9.0872001 C77.5668002,12.2152 75.3588002,14.3496 71.9548003,14.3496 C68.5324004,14.3496 66.3980004,12.2152 66.3980004,9.0872001 L66.3980004,0.97280027 L69.5260004,0.97280027 L69.5260004,8.82960011 C69.5260004,10.2280001 70.2068003,11.5160001 71.9732003,11.5160001 C73.7580003,11.5160001 74.4204003,10.2280001 74.4204003,8.82960011 L74.4204003,0.97280027 L77.5668002,0.97280027 L77.5668002,9.0872001 Z M91.9555999,14 L88.386,14 L83.1420001,5.48080018 L83.0868001,5.48080018 L83.1604001,14 L80.1060001,14 L80.1060001,0.97280027 L83.6940001,0.97280027 L88.9195999,9.47360009 L88.9747999,9.47360009 L88.9012,0.97280027 L91.9555999,0.97280027 L91.9555999,14 Z M106.8044,7.44960014 C106.8044,12.0312 103.0876,14 99.4995997,14 L94.6419998,14 L94.6419998,0.97280027 L99.3523997,0.97280027 C103.0508,0.97280027 106.8044,2.51840024 106.8044,7.44960014 Z M103.5292,7.44960014 C103.5292,4.5240002 101.45,3.65920021 99.2787997,3.65920021 L97.7147998,3.65920021 L97.7147998,11.2768001 L99.2051997,11.2768001 C101.45,11.2768001 103.5292,10.3568001 103.5292,7.44960014 Z M117.770799,2.24240024 L115.765199,4.3584002 C115.231599,3.67760021 114.256399,3.23600022 113.446799,3.23600022 C112.637199,3.23600022 111.625199,3.51200022 111.625199,4.5424002 C111.625199,5.40720018 112.397999,5.68320017 113.630799,6.06960016 C115.397199,6.64000015 117.678799,7.39440014 117.678799,9.98880008 C117.678799,12.988 115.268399,14.3312 112.692399,14.3312 C110.833999,14.3312 108.9572,13.6504 107.8164,12.4544 L109.8772,10.3568001 C110.5028,11.1480001 111.661999,11.7368 112.692399,11.7368 C113.649199,11.7368 114.495599,11.3688001 114.495599,10.3200001 C114.495599,9.3264001 113.501999,9.0136001 111.790799,8.46160011 C110.1348,7.92800013 108.4604,7.08160014 108.4604,4.72640019 C108.4604,1.83760025 111.073199,0.641600277 113.501999,0.641600277 C114.973999,0.641600277 116.629999,1.19360027 117.770799,2.24240024 Z" id="Combined-Shape"></path>
                <path d="M12.1623997,7.47679987 C12.1623997,12.0583998 8.44559982,14.0271997 4.8575999,14.0271997 L0,14.0271997 L0,1 L4.7103999,1 C8.40879983,1 12.1623997,2.54559997 12.1623997,7.47679987 Z M8.88719982,7.47679987 C8.88719982,4.55119993 6.80799986,3.68639994 4.6367999,3.68639994 L3.07279994,3.68639994 L3.07279994,11.3039998 L4.56319991,11.3039998 C6.80799986,11.3039998 8.88719982,10.3839998 8.88719982,7.47679987 Z M26.5695994,14.0271997 L23.0735995,14.0271997 L22.0615995,11.4695998 L17.0199996,11.4695998 L16.0631997,14.0271997 L12.6407997,14.0271997 L18.1055996,1 L21.1599996,1 L26.5695994,14.0271997 Z M21.1967996,8.94879984 L19.5775996,4.47759993 L17.9215996,8.94879984 L21.1967996,8.94879984 Z M36.9103992,3.68639994 L33.2303993,3.68639994 L33.2303993,14.0271997 L30.0839994,14.0271997 L30.0839994,3.68639994 L26.4039995,3.68639994 L26.4039995,1 L36.9103992,1 L36.9103992,3.68639994 Z M47.435199,14.0271997 L38.3455992,14.0271997 L38.3455992,1 L47.103999,1 L47.103999,3.66799994 L41.3815991,3.66799994 L41.3815991,6.11519989 L46.791199,6.11519989 L46.791199,8.63599984 L41.3815991,8.63599984 L41.3815991,11.3407998 L47.435199,11.3407998 L47.435199,14.0271997 Z" id="Combined-Shape"></path>
            </g>
        </g>
    </g>
</svg>